<svg xmlns="http://www.w3.org/2000/svg" xmlns:xlink="http://www.w3.org/1999/xlink" viewBox="0 0 150.64 150.64">
    <defs>
        <style>.cls-1{fill:url(#linear-gradient);}.cls-2{fill:#fff;}</style>
        <linearGradient id="linear-gradient" x1="75.32" y1="150.64" x2="75.32" gradientUnits="userSpaceOnUse">
            <stop offset="0" stop-color="#ff5b3b" />
            <stop offset="0.97" stop-color="#f4901e" />
        </linearGradient>
    </defs>
    <g id="Layer_2" data-name="Layer 2">
        <g id="Layer_1-2" data-name="Layer 1">
            <path class="cls-1" d="M75.32,0h0A75.32,75.32,0,0,0,0,75.32H0a75.27,75.27,0,0,0,38.37,65.62,7.92,7.92,0,0,1-.51-2.81,8,8,0,0,1,15.38-3.23,5.37,5.37,0,0,1,7,.94,2.8,2.8,0,0,1,4.5-1.42,35.51,35.51,0,0,0,8.41-22.94v-5.92a2,2,0,0,1,2-2l.12,0,.12,0a2,2,0,0,1,2,2v5.92a35.5,35.5,0,0,0,8.4,22.94,2.83,2.83,0,0,1,1.8-.65,2.8,2.8,0,0,1,2.7,2.07,5.39,5.39,0,0,1,7.06-.94,8,8,0,0,1,15.38,3.23,7.92,7.92,0,0,1-.51,2.81,75.29,75.29,0,0,0,38.37-65.62h0A75.32,75.32,0,0,0,75.32,0Zm24.89,111.13-13.4-7.4a2.51,2.51,0,0,1-1.31-2.21V84.28l-2.7,2V90L78.89,92.7v5.23H71.74V92.7L67.84,90V86.28l-2.71-2v17.24a2.52,2.52,0,0,1-1.3,2.21l-13.41,7.4V77l8.93-4.83a91.7,91.7,0,0,1-1.57-16.92c0-17.08,6.87-32.26,17.54-41.91C86,23,92.86,38.21,92.86,55.29a90.84,90.84,0,0,1-1.58,16.92L100.21,77Z" />
            <path class="cls-1" d="M75.32,32.59a6.25,6.25,0,1,0,6.25,6.25A6.25,6.25,0,0,0,75.32,32.59Z" />
            <path class="cls-2" d="M92.86,55.29C92.86,38.21,86,23,75.32,13.38,64.65,23,57.78,38.21,57.78,55.29a91.7,91.7,0,0,0,1.57,16.92L50.42,77v34.09l13.41-7.4a2.52,2.52,0,0,0,1.3-2.21V84.28l2.71,2V90l3.9,2.67v5.23h7.15V92.7L82.8,90V86.28l2.7-2v17.24a2.51,2.51,0,0,0,1.31,2.21l13.4,7.4V77l-8.93-4.83A90.84,90.84,0,0,0,92.86,55.29ZM75.32,45.09a6.25,6.25,0,1,1,6.25-6.25A6.25,6.25,0,0,1,75.32,45.09Z" />
            <path class="cls-2" d="M104.75,130.09a8,8,0,0,0-7.35,4.81,5.39,5.39,0,0,0-7.06.94,2.8,2.8,0,0,0-2.7-2.07,2.83,2.83,0,0,0-1.8.65,35.5,35.5,0,0,1-8.4-22.94v-5.92a2,2,0,0,0-2-2l-.12,0-.12,0a2,2,0,0,0-2,2v5.92a35.51,35.51,0,0,1-8.41,22.94,2.8,2.8,0,0,0-4.5,1.42,5.37,5.37,0,0,0-7-.94,8,8,0,0,0-15.38,3.23,7.92,7.92,0,0,0,.51,2.81,75,75,0,0,0,36.95,9.7h0a75,75,0,0,0,37-9.7,7.92,7.92,0,0,0,.51-2.81A8,8,0,0,0,104.75,130.09Z" />
        </g>
    </g>
</svg>